<?xml version="1.0" encoding="utf-8"?>
<!-- Generator: Adobe Illustrator 26.3.1, SVG Export Plug-In . SVG Version: 6.00 Build 0)  -->
<svg version="1.1" id="Calque_1" xmlns="http://www.w3.org/2000/svg" xmlns:xlink="http://www.w3.org/1999/xlink" x="0px" y="0px"
	 viewBox="0 0 126.6 42.4" style="enable-background:new 0 0 126.6 42.4;" xml:space="preserve">
<style type="text/css">
	.st0{fill:#E8530E;}
</style>
<g id="Calque_2_00000046332538992120657560000009112239285469239953_">
</g>
<g id="art-work">
	<g id="lettrage">
		<g>
			<path class="st0" d="M63.7,5.5c-5,0-4.9,2-5.7,4.7c-0.9,2.8-4.8,15.3-4.8,15.3S49.3,13,48.4,10.2c-0.9-2.8-0.7-4.7-5.7-4.7h-4.1
				c-0.4,0-0.7,0.4-0.5,0.8c0,0,9.4,26.5,10.2,28.6c0.5,1.4,0.7,2.1,2.5,2.1c0.7,0,1.6,0,2.5,0c0.9,0,1.8,0,2.5,0
				c1.8,0,2-0.7,2.5-2.1c0.8-2.1,10.2-28.6,10.2-28.6c0.1-0.4-0.1-0.8-0.5-0.8H63.7z"/>
			<path class="st0" d="M98.1,5.5c-5,0-4.9,2-5.7,4.7c-0.9,2.8-4.8,15.3-4.8,15.3S83.7,13,82.8,10.2c-0.9-2.8-0.7-4.7-5.7-4.7H73
				c-0.4,0-0.7,0.4-0.5,0.8c0,0,9.4,26.5,10.2,28.6c0.5,1.4,0.7,2.1,2.5,2.1c0.7,0,1.6,0,2.5,0c0.9,0,1.8,0,2.5,0
				c1.8,0,2-0.7,2.5-2.1c0.8-2.1,10.2-28.6,10.2-28.6c0.1-0.4-0.1-0.8-0.5-0.8H98.1z"/>
			<path class="st0" d="M109.8,5.5c-2.1,0-3,1-3,3.1c0,4.2,0,21,0,25.2c0,2.3-0.2,3.2,2.1,3.2c0.7,0,3.5,0,4.3,0
				c2.3,0,2.1-0.9,2.1-3.2c0-1.8,0-5.3,0-7.7c0-0.3,0.3-0.6,0.6-0.6l3.5,0c5,0,5.2-1.9,5.2-4.3v-2.6c0-0.3-0.3-0.6-0.6-0.6l-8.2,0
				c-0.3,0-0.6-0.3-0.6-0.6c0-1.5,0-3.1,0-3.8c0-0.7,0.2-0.9,0.8-0.9v0h5.3c5,0,5.2-1.9,5.2-4.3V6c0-0.3-0.3-0.6-0.6-0.6
				C126,5.5,111.9,5.4,109.8,5.5z"/>
		</g>
	</g>
	<g id="chouette">
		<path class="st0" d="M17,23.3c-0.5-1.1-1.3-3.1-1.4-4.2c-7.3,5.1-11-1.7-11-1.7c0.4,10-3.4,18.1-4.5,20.5
			c-0.2,0.3,0.1,0.7,0.5,0.6c2.3-0.4,5.2-1.3,7.2-4.2c1,0.4,3.9,2.6,9.3,2.6s8.3-2.1,9.3-2.6c2,2.8,4.9,3.8,7.2,4.2
			c0.4,0.1,0.6-0.3,0.5-0.6c-1.1-2.4-4.9-10.5-4.5-20.5c0,0-3.8,6.9-11,1.7C18.3,20.2,17.5,22.3,17,23.3L17,23.3z"/>
		<path class="st0" d="M2.4,3.9C2.2,3.8,2.1,4,2.1,4.1c0,0.1,0,0.3,0.1,0.5c0.1,0.3,0.2,0.7,0.3,1C3,6.6,4.1,7.1,6.4,7.1
			c4.5,0,8-0.4,10.4,4.5c0.1,0.2,0.4,0.2,0.5,0c2.3-4.8,5.9-4.5,10.4-4.5c2.4,0,3.4-0.5,3.9-1.5c0.2-0.4,0.3-0.7,0.3-1
			c0-0.2,0.1-0.4,0.1-0.5c0-0.2-0.1-0.3-0.3-0.3L17.5,5.4c-0.4,0-0.7,0-1.1,0L2.4,3.9z"/>
		<path class="st0" d="M11.9,10.7c0.7,0.1,1.3,0.3,1.9,0.7c-1.1-0.1-2.1,0.8-2.2,1.9c-0.1,1.2,0.7,2.2,1.9,2.3
			c0.9,0.1,1.8-0.5,2.1-1.3c0,0.3,0,0.6,0,0.9c-0.2,2.3-2.2,3.9-4.5,3.7c-2.3-0.2-3.9-2.2-3.7-4.5S9.6,10.5,11.9,10.7z"/>
		<path class="st0" d="M24.9,10.7c0.7,0.1,1.3,0.3,1.9,0.7c-1.1-0.1-2.1,0.8-2.2,1.9c-0.1,1.2,0.7,2.2,1.9,2.3
			c0.9,0.1,1.8-0.5,2.1-1.3c0,0.3,0,0.6,0,0.9c-0.2,2.3-2.2,3.9-4.5,3.7c-2.3-0.2-3.9-2.2-3.7-4.5S22.7,10.5,24.9,10.7z"/>
	</g>
</g>
</svg>
